<?xml version="1.0" standalone="no"?>
<!DOCTYPE svg PUBLIC "-//W3C//DTD SVG 20010904//EN"
 "http://www.w3.org/TR/2001/REC-SVG-20010904/DTD/svg10.dtd">
<svg version="1.0" xmlns="http://www.w3.org/2000/svg"
 width="224.000000pt" height="52.000000pt" viewBox="0 0 224.000000 52.000000"
 preserveAspectRatio="xMidYMid meet">
<metadata>
Created by potrace 1.10, written by Peter Selinger 2001-2011
</metadata>
<g transform="translate(0.000000,52.000000) scale(0.100000,-0.100000)"
fill="#000000" stroke="none">
<path d="M1539 393 c0 -5 -1 -57 -1 -118 l0 -110 63 -3 c43 -2 65 1 70 10 15
23 10 25 -47 20 l-56 -5 4 107 c3 96 2 106 -14 106 -10 0 -18 -3 -19 -7z"/>
<path d="M70 383 c0 -5 9 -19 20 -33 26 -33 25 -79 -1 -136 -16 -34 -19 -48
-10 -57 15 -15 24 -3 45 66 l17 58 49 -45 c32 -30 58 -46 75 -46 35 0 86 23
109 49 27 30 36 26 36 -16 0 -47 14 -73 31 -56 8 8 8 20 -1 47 -7 22 -9 57 -5
91 6 47 5 55 -9 55 -9 0 -16 -8 -16 -20 0 -27 -73 -106 -110 -119 -40 -13 -80
15 -145 101 -27 37 -58 67 -67 67 -10 1 -18 -2 -18 -6z"/>
<path d="M1310 337 c0 -32 -1 -33 -34 -29 -26 3 -37 -1 -50 -19 -16 -24 -21
-85 -8 -105 14 -21 52 -35 69 -26 9 5 24 7 34 5 18 -5 19 2 19 101 0 88 -3
106 -15 106 -10 0 -15 -10 -15 -33z m-11 -61 c17 -20 10 -77 -11 -89 -24 -16
-48 8 -48 47 0 49 34 73 59 42z"/>
<path d="M1375 361 c-8 -15 3 -31 21 -31 9 0 14 7 12 17 -4 20 -24 28 -33 14z"/>
<path d="M1860 265 c0 -116 -8 -105 70 -106 34 0 60 35 60 81 0 49 -27 75 -73
67 -32 -5 -33 -5 -29 29 3 26 1 34 -12 34 -14 0 -16 -15 -16 -105z m89 11 c17
-20 10 -77 -11 -89 -24 -16 -48 8 -48 47 0 49 34 73 59 42z"/>
<path d="M510 291 c-13 -26 -13 -31 4 -31 8 0 17 7 20 16 8 21 50 14 54 -8 3
-14 -3 -18 -27 -18 -30 0 -71 -29 -71 -50 0 -5 9 -19 21 -31 14 -14 26 -18 42
-12 12 4 37 6 55 5 17 -1 32 3 32 8 0 6 -4 10 -10 10 -5 0 -10 24 -10 53 0 29
-5 58 -12 65 -20 20 -86 15 -98 -7z m80 -74 c0 -18 -21 -37 -41 -37 -24 0 -32
27 -11 39 24 15 52 13 52 -2z"/>
<path d="M660 234 c0 -59 3 -74 15 -74 11 0 15 13 15 54 0 56 17 83 45 72 11
-4 15 -21 15 -66 0 -47 3 -60 15 -60 12 0 15 13 15 59 0 45 4 60 16 65 27 10
34 -3 34 -65 0 -46 3 -59 15 -59 12 0 15 14 15 63 0 36 -5 68 -12 75 -15 15
-68 16 -68 1 0 -8 -4 -8 -13 -1 -7 6 -34 11 -60 10 l-47 -1 0 -73z"/>
<path d="M891 203 c0 -83 3 -103 15 -103 9 0 14 11 14 35 0 32 2 34 23 26 58
-22 101 46 73 113 -14 35 -16 35 -70 34 l-56 -2 1 -103z m86 79 c18 -11 26
-58 13 -81 -24 -47 -79 -7 -65 47 6 24 21 42 35 42 3 0 10 -4 17 -8z"/>
<path d="M1058 243 c4 -74 9 -84 38 -84 10 1 34 1 52 1 l32 1 0 75 c0 59 -3
74 -15 74 -11 0 -15 -12 -15 -46 0 -51 -14 -84 -35 -84 -24 0 -38 39 -31 86 5
38 3 44 -12 44 -16 0 -17 -8 -14 -67z"/>
<path d="M1378 235 c-3 -66 -1 -75 15 -75 15 0 17 10 17 75 0 58 -3 75 -14 75
-11 0 -15 -18 -18 -75z"/>
<path d="M1710 291 c-13 -26 -13 -31 4 -31 8 0 17 7 20 16 8 21 50 14 54 -8 3
-14 -3 -18 -27 -18 -30 0 -71 -29 -71 -50 0 -5 9 -19 21 -31 14 -14 26 -18 42
-12 12 4 37 6 55 5 17 -1 32 3 32 8 0 6 -4 10 -10 10 -5 0 -10 24 -10 53 0 29
-5 58 -12 65 -20 20 -86 15 -98 -7z m80 -74 c0 -18 -21 -37 -41 -37 -24 0 -32
27 -11 39 24 15 52 13 52 -2z"/>
<path d="M2032 298 c-6 -6 -12 -22 -12 -34 0 -21 11 -28 73 -48 26 -8 16 -30
-16 -34 -18 -2 -29 2 -33 12 -3 9 -12 16 -20 16 -17 0 -17 -5 -4 -30 21 -39
102 -32 115 10 9 27 -9 48 -49 58 -17 5 -32 16 -34 25 -4 22 26 22 50 0 22
-19 37 -9 22 15 -13 21 -74 28 -92 10z"/>
</g>
</svg>
